<?xml version="1.0" encoding="utf-8"?>
<!-- Generator: Adobe Illustrator 22.1.0, SVG Export Plug-In . SVG Version: 6.00 Build 0)  -->
<svg version="1.1" id="Layer_1" xmlns="http://www.w3.org/2000/svg" xmlns:xlink="http://www.w3.org/1999/xlink" x="0px" y="0px"
	 viewBox="0 0 14 11" style="enable-background:new 0 0 14 11;" xml:space="preserve">
<g>
	<path d="M1.3,3.4c0.2,0.1,0.7,0.5,1.6,1.1c0.9,0.6,1.6,1.1,2,1.4C5,6,5.2,6,5.3,6.2c0.2,0.1,0.3,0.2,0.4,0.3C5.9,6.5,6,6.6,6.2,6.7
		c0.2,0.1,0.3,0.2,0.4,0.2C6.7,7,6.9,7,7,7h0c0.1,0,0.3,0,0.4-0.1c0.1,0,0.3-0.1,0.4-0.2C8,6.6,8.1,6.5,8.3,6.5
		c0.1-0.1,0.3-0.2,0.4-0.3C8.8,6,9,6,9,5.9c0.5-0.3,1.7-1.2,3.7-2.5c0.4-0.3,0.7-0.6,1-1C13.9,2.1,14,1.7,14,1.3
		c0-0.3-0.1-0.6-0.4-0.9C13.4,0.1,13.1,0,12.8,0H1.3C0.8,0,0.5,0.1,0.3,0.4C0.1,0.7,0,1,0,1.4c0,0.3,0.1,0.7,0.4,1.1
		C0.7,2.9,1,3.2,1.3,3.4L1.3,3.4z M1.3,3.4" fill="#fff"/>
	<path d="M13.2,4.2c-1.7,1.2-3,2.1-3.9,2.7C9,7.1,8.8,7.3,8.6,7.4C8.4,7.6,8.2,7.7,7.9,7.8C7.6,7.9,7.3,8,7,8h0
		C6.7,8,6.4,7.9,6.1,7.8C5.8,7.7,5.6,7.6,5.4,7.4C5.2,7.3,5,7.1,4.7,6.9C4,6.4,2.7,5.5,0.8,4.2C0.5,4,0.2,3.8,0,3.5v6.2
		c0,0.3,0.1,0.6,0.4,0.9C0.6,10.9,0.9,11,1.3,11h11.5c0.3,0,0.6-0.1,0.9-0.4c0.2-0.2,0.4-0.5,0.4-0.9V3.5C13.8,3.8,13.5,4,13.2,4.2
		L13.2,4.2z M13.2,4.2" fill="#fff"/>
</g>
</svg>
